<svg xmlns="http://www.w3.org/2000/svg" viewBox="0 0 655.19 266.16"><defs><style>.cls-1{fill:#fff;}</style></defs><g id="Layer_2" data-name="Layer 2"><g id="Logo"><path id="White" class="cls-1" d="M650,134.41c-2.08,0-3.38,1.82-5.19,4.42-4.94,6.76-15.08,19.23-30.42,19.23-12.48,0-19.24-5.46-20.8-14.29,9.88-6.76,32.76-28.6,32.76-50.18,0-10.14-4.42-15.86-16.38-15.86-16.64,0-36.4,25-36.4,54.08a42.83,42.83,0,0,0,3,16.27c-4.51,5.23-9.91,10-15.2,10-8.84,0-15.34-3.89-15.34-32,0-22.1,1.3-38.48,3.12-51h11.18c12.74,0,23.14-2.6,23.14-6s-4.42-8.58-7.28-8.58-2.34,2.6-15.86,2.6h-9.1l2.34-8.32c2.08-7,5.46-12,5.46-14,0-6-8.58-11.44-13.52-11.44-2.86,0-4.42,2.6-6,9.88-1.56,6.24-2.86,14.56-4.16,23.66-3.64-.26-7-.26-9.1-.26-3.38,0-6.5,6.5-6.5,8.84s.78,3.9,4.68,3.9h9.36c-2.34,18.72-3.9,39.26-3.9,52.26,0,3.44.14,6.6.39,9.55-.38.49-.76,1-1.17,1.63-4.94,6.76-11.18,17.15-20.28,17.15-8.84,0-10.14-16.11-10.14-34,0-22.36,9.88-27.3,9.88-33.28,0-4.16-2.08-7.54-6.5-7.54-6.76,0-12.48,10.14-12.74,10.66-.26-1-3.12-14.56-19.5-14.56-15.84,0-41,25.12-41.82,64-4.84,6.28-11.47,13.23-19.54,13.23-7.54,0-10.4-5.46-10.4-11.18,0-14.3,5.2-29.12,5.2-40S394.93,91,386.87,91a80.59,80.59,0,0,1-11.7-.52c3.12-8.32,5.46-15.34,5.46-19.5,0-8.32-6.5-13.52-15.86-13.52-11.18,0-21.84,10.4-21.84,23.4,0,10.14,6.24,16.64,15.6,20L344,137c-4.68,12-15.08,16.63-15.08,22.09,0,4.42.78,7.8,7.8,7.8,8.32,0,14.82-13.26,20.28-30.15,3.38-10.66,8.32-22.36,12.74-33,3.38.26,6.5.52,10.14.52,4.94,0,6.5.78,6.5,4.68s-4.94,18.2-4.94,35.62c0,13.77,10.92,23.39,24.7,23.39,9.83,0,17.76-6,23.88-12.77,2.73,7.55,8.28,13.56,16.94,13.56,17.68,0,36.66-30.68,36.66-30.68s.78,30.68,23.14,30.68c11.38,0,19.86-9.23,26.12-17.57,4.43,13.9,13.42,18.61,24.32,18.61,10.52,0,18.73-5.86,25-12.47,6.85,7.92,17.3,12.2,29.61,12.2,21.84,0,34.32-14.82,40.82-23.91,1.81-2.61,2.6-3.91,2.6-6C655.19,137.27,652.32,134.41,650,134.41ZM363.47,87.87c-4.42-1.82-6.5-4.16-6.5-7.28,0-6.5,2.08-9.88,5.2-9.88s3.9,2.08,3.9,6C366.07,79,365,82.93,363.47,87.87ZM451.87,156c-6.5,0-8.06-6.5-8.06-14.81,0-31.46,18.72-52.26,27.82-52.26,6.76,0,8.58,5.72,8.58,14.82,0,3.9-3.12,6.24-3.12,10.14s3.64,4.68,3.64,7.8S459.67,156,451.87,156ZM608.65,89.69c2.34,0,3.64,1.3,3.64,4.42,0,15.86-13.52,30.68-21.32,35.62C591,111,602.67,89.69,608.65,89.69ZM309.33,82.25a23.1,23.1,0,0,0-10.43,2.06c8.21-17.86,17.35-41.74,18.4-61.55C318.09,7.83,313.36.4,303.12,0,290.32-.49,270,23.56,269,96.89c0,1-.09,4.49-.17,8.66-.19,1.57-.36,3.07-.5,4.44-1.48,12.54-1.49,22.55-.48,30.54-5.31,7-15,17.53-29.15,17.53-12.48,0-19.24-5.46-20.8-14.29,9.88-6.76,32.76-28.6,32.76-50.18,0-10.14-4.42-15.86-16.38-15.86-16.64,0-36.4,25-36.4,54.08a42.78,42.78,0,0,0,2.92,16.09c-4.17,4.41-9.32,8.08-15.66,8.08-15.08,0-22.88-16.63-22.88-27,0,0,27.56-56.16,27.56-95.94,0-16.12-5.2-23.92-15.6-23.92-13,0-29.38,27.82-29.38,105.82A82.82,82.82,0,0,0,147,134.64c-1.45.55-2.58,2.11-4,4.19-4.94,6.76-15.08,19.23-30.42,19.23-12.48,0-19.24-5.46-20.8-14.29,9.88-6.76,32.76-28.6,32.76-50.18,0-10.14-4.42-15.86-16.38-15.86-16.64,0-36.4,25-36.4,54.08a48.18,48.18,0,0,0,.38,6.11l-.64.91c-4.94,6.76-14.3,20.27-30.68,20.27-15.34,0-25.22-8.83-25.22-27.55,0-26.26,12.48-41.86,20.28-41.86,4.94,0,7,4.42,7,7.54s-2.6,4.68-2.6,8.32,3.9,7,8.32,7c5.46,0,9.1-4.42,9.1-11.7,0-10.14-5.2-23.14-21.58-23.14C15.86,77.73,0,99.05,0,131.55c0,25.22,19.76,39.26,38,39.26,19,0,30.72-11.43,37.81-20.48,6.1,12.36,18.67,19.17,34.21,19.17,21.84,0,34.32-14.82,40.82-23.91l0-.05c7.42,15.83,20.65,23.19,33.77,23.19,9.17,0,16.32-5.2,22-11.31,6.85,7.84,17.25,12.08,29.5,12.08,16.35,0,27.45-8.3,34.73-16.29,4.34,11.49,11.86,15.65,18.92,16.43,18.3,2.07,38.72-15.57,43-43.22C336.5,99.71,327.21,82.88,309.33,82.25ZM106.86,89.69c2.34,0,3.64,1.3,3.64,4.42,0,15.86-13.52,30.68-21.32,35.62C89.18,111,100.88,89.69,106.86,89.69Zm50.74,20.42c0-51,10.61-85.16,16.07-85.16,2.08,0,3.12,2.86,3.12,6.5C176.79,66.55,157.6,110.11,157.6,110.11ZM233,89.69c2.34,0,3.64,1.3,3.64,4.42,0,15.86-13.52,30.68-21.32,35.62C215.27,111,227,89.69,233,89.69Zm50.42-26.13c3.14-28.85,13.83-51.05,18.37-51.18,2.21-.05,3.35,2.23,3.4,5.18.3,16.74-7.49,38.11-13.06,53.23C287.25,83.93,281.7,90.1,281.7,90.1A193.12,193.12,0,0,1,283.37,63.56Zm34.77,62.34c-3,18.74-15.31,32.9-26.1,31.58-6.57-.71-11-8.41-11.31-26.32,5.9-20,15.93-37.12,26.75-36.73C316.89,94.76,321.18,106.7,318.14,125.9ZM173.93,264.26a12.59,12.59,0,0,1-4.93-5.42,20.84,20.84,0,0,1,0-16.58,12.4,12.4,0,0,1,4.93-5.39,14.63,14.63,0,0,1,7.54-1.89,16.42,16.42,0,0,1,5.69,1,12,12,0,0,1,4.44,2.81L190.08,242a14.72,14.72,0,0,0-4.13-2.55,12.11,12.11,0,0,0-4.43-.8,8.82,8.82,0,0,0-7.21,3.09q-2.53,3.08-2.54,8.78c0,3.83.85,6.77,2.54,8.84a8.8,8.8,0,0,0,7.21,3.11,12.11,12.11,0,0,0,4.43-.79,15.2,15.2,0,0,0,4.13-2.55l1.52,3.25a11.83,11.83,0,0,1-4.44,2.81,16.42,16.42,0,0,1-5.69,1A14.54,14.54,0,0,1,173.93,264.26Zm43.64,0a12.69,12.69,0,0,1-4.83-5.42,18.84,18.84,0,0,1-1.7-8.27,19.07,19.07,0,0,1,1.68-8.31,12.25,12.25,0,0,1,4.83-5.39,15.45,15.45,0,0,1,14.81,0,12.31,12.31,0,0,1,4.8,5.39,21.18,21.18,0,0,1,0,16.58,12.42,12.42,0,0,1-4.82,5.42,14.05,14.05,0,0,1-7.4,1.9A13.9,13.9,0,0,1,217.57,264.26Zm14.37-4.82c1.66-2.09,2.5-5.06,2.5-8.91s-.84-6.78-2.5-8.85a9.42,9.42,0,0,0-14,0q-2.47,3.1-2.48,8.85c0,3.85.84,6.82,2.5,8.91a9.36,9.36,0,0,0,13.95,0Zm53.57-24.12H289v30.5h-3.9V244.87l-8.86,20.95h-3l-9-20.82.05,20.82h-3.91v-30.5h3.49l10.87,25.19Zm26,0H324c3.13,0,5.58.78,7.33,2.34a9,9,0,0,1,0,12.72,10.67,10.67,0,0,1-7.29,2.33h-8.11v13.11h-4.32Zm11.93,13.88a7.08,7.08,0,0,0,4.68-1.33,4.75,4.75,0,0,0,1.57-3.85,4.69,4.69,0,0,0-1.57-3.81,7.08,7.08,0,0,0-4.68-1.33h-7.61V249.2Zm50.9,16.62-3.19-7.54H356.07l-3.19,7.54h-4.41l13.31-30.5h3.65l13.36,30.5Zm-16.84-11h12.18l-6.09-14.52Zm61.11-19.45h4.07v30.5H419.4l-17.13-23v23h-4.08v-30.5h3.28l17.18,23.09Zm50.15,0-11.93,18.25v12.25H452.5V253.48l-11.89-18.16h5l9.16,14.39,9.11-14.39Z"/></g></g></svg>